<svg width="64" height="64" viewBox="0 0 64 64" fill="none" xmlns="http://www.w3.org/2000/svg">
  <path d="M32 8 L12 16 V32 C12 46 20 56 32 62 C44 56 52 46 52 32 V16 Z" fill="#09090b" stroke="#fbbf24" stroke-width="4" stroke-linejoin="round"/>
  <path d="M32 8 L12 16 V32 C12 46 20 56 32 62 V8 Z" fill="#18181b"/>
  <path d="M32 8 L52 16 V32 C52 46 44 56 32 62 V8 Z" fill="#dc2626"/>
  <circle cx="32" cy="35" r="5" fill="#fbbf24"/>
  <path d="M32 18 L34 26 L42 28 L35 32 L36 40 L32 36 L28 40 L29 32 L22 28 L30 26 Z" fill="#fbbf24" style="transform-origin: 32px 35px; transform: scale(0.6) translateY(-10px);"/>
</svg>
